<svg xmlns="http://www.w3.org/2000/svg" viewBox="0 0 69.58 69.58"><defs><style>.cls-1{fill:#64ffb1;}.cls-2{fill:#231f20;}</style></defs><title>Asset 3</title><g id="Layer_2" data-name="Layer 2"><g id="Layer_1-2" data-name="Layer 1"><circle class="cls-1" cx="34.79" cy="34.79" r="34.79"/><path class="cls-2" d="M52.13,22.8a9.35,9.35,0,0,0-5.35-5.35,13.59,13.59,0,0,0-4.44-.85c-2-.09-2.58-.11-7.55-.11s-5.59,0-7.55.11a13.59,13.59,0,0,0-4.44.85,9.35,9.35,0,0,0-5.35,5.35,13.59,13.59,0,0,0-.85,4.44c-.09,2-.11,2.58-.11,7.55s0,5.59.11,7.55a13.59,13.59,0,0,0,.85,4.44,9.35,9.35,0,0,0,5.35,5.35,13.59,13.59,0,0,0,4.44.85c2,.09,2.58.11,7.55.11s5.59,0,7.55-.11a13.59,13.59,0,0,0,4.44-.85,9.34,9.34,0,0,0,5.35-5.35A13.59,13.59,0,0,0,53,42.34c.09-2,.11-2.58.11-7.55s0-5.59-.11-7.55A13.59,13.59,0,0,0,52.13,22.8ZM49.69,42.19a10,10,0,0,1-.63,3.39,6.09,6.09,0,0,1-3.48,3.48,10.06,10.06,0,0,1-3.4.63c-1.92.09-2.5.1-7.39.1s-5.47,0-7.4-.1A10,10,0,0,1,24,49.06a6,6,0,0,1-3.48-3.48,10,10,0,0,1-.63-3.39c-.09-1.93-.1-2.51-.1-7.4s0-5.47.1-7.4A10,10,0,0,1,20.52,24,6,6,0,0,1,24,20.52a10,10,0,0,1,3.39-.63c1.93-.09,2.51-.1,7.4-.1s5.47,0,7.4.1a10,10,0,0,1,3.39.63A6,6,0,0,1,49.06,24a10,10,0,0,1,.63,3.39c.09,1.93.1,2.51.1,7.4S49.78,40.26,49.69,42.19Z"/><path class="cls-2" d="M34.79,25.39a9.4,9.4,0,1,0,9.4,9.4A9.4,9.4,0,0,0,34.79,25.39Zm0,15.5a6.1,6.1,0,1,1,6.1-6.1A6.1,6.1,0,0,1,34.79,40.89Z"/><path class="cls-2" d="M44.56,22.82a2.2,2.2,0,1,0,2.2,2.2A2.21,2.21,0,0,0,44.56,22.82Z"/></g></g></svg>